<?xml version="1.0" encoding="UTF-8" standalone="no"?>
<!-- Created with Inkscape (http://www.inkscape.org/) -->

<svg
   width="66.450478mm"
   height="65.967072mm"
   viewBox="0 0 66.450478 65.967072"
   version="1.1"
   id="svg1"
   xml:space="preserve"
   xmlns="http://www.w3.org/2000/svg"
   xmlns:svg="http://www.w3.org/2000/svg"><defs
     id="defs1" /><g
     id="layer1"
     transform="translate(-79.18269,-109.41751)"><path
       id="path1"
       style="fill:#1793d1;stroke-width:0.344053;fill-opacity:1"
       d="m 113.13217,109.42987 c -1.13258,-0.027 -2.27182,-0.0109 -2.95743,0.0594 -3.68951,0.37795 -7.15856,1.52827 -10.397589,3.4478 -5.688285,3.37097 -9.784961,8.73861 -11.256521,14.74875 -0.543277,2.21884 -0.644638,3.14348 -0.640772,5.83983 0.0035,2.36988 0.09522,3.38745 0.412663,4.57429 l 0.09121,0.34137 h 2.646116 c 2.483341,0 2.642257,-0.01 2.58335,-0.1593 -0.356798,-0.90559 -0.638372,-3.4988 -0.566273,-5.214 0.1277,-3.03779 1.362791,-6.66203 3.214166,-9.43111 0.319811,-0.47833 0.580651,-0.89656 0.579611,-0.9295 -0.002,-0.076 -1.151001,-0.83369 -1.263939,-0.83369 -0.129395,0 -0.602372,0.63349 -1.178958,1.57917 l -0.522004,0.85608 -0.342966,-0.17582 -0.342787,-0.17585 0.248379,-0.42741 c 1.658531,-2.8532 3.918685,-5.22428 6.852734,-7.18894 l 1.03636,-0.69394 0.20997,0.2633 c 0.11548,0.14483 0.18878,0.29766 0.16286,0.33959 -0.0259,0.042 -0.46642,0.3575 -0.97875,0.70123 -0.51233,0.34374 -1.236199,0.8718 -1.608689,1.17345 -0.86498,0.70046 -2.23865,1.98636 -2.17922,2.04001 0.025,0.0226 0.32737,0.25206 0.67206,0.50992 l 0.62673,0.46884 0.59383,-0.55543 c 3.516279,-3.28931 8.112609,-5.2725 12.763319,-5.50702 1.10007,-0.0555 1.14727,-0.0662 1.42255,-0.32606 0.40616,-0.38343 0.81126,-0.44761 1.84532,-0.29247 3.14285,0.47151 6.9013,2.13625 9.33988,4.13691 0.35049,0.28754 0.7365,0.62975 0.85787,0.76062 l 0.22065,0.23805 h 3.39782 c 2.37151,0 3.39783,-0.0298 3.39783,-0.0982 0,-0.23085 -1.41039,-1.94775 -2.50335,-3.0474 -1.38135,-1.38979 -2.20634,-2.07319 -3.72283,-3.08401 -2.90048,-1.9333 -6.14763,-3.17261 -9.79522,-3.73866 -0.65937,-0.10232 -1.78538,-0.17264 -2.91797,-0.19967 z m -0.35914,7.59217 -1.25167,0.0543 c -4.42698,0.19221 -8.60951,2.17586 -11.623129,5.51234 -1.01536,1.12414 -2.07018,2.68594 -2.55651,3.7856 l -0.22739,0.51436 0.29566,0.12428 c 0.16259,0.0684 0.32893,0.10377 0.36964,0.0786 0.0407,-0.0251 0.16755,-0.25707 0.2818,-0.51543 0.11425,-0.25835 0.42255,-0.81623 0.68522,-1.23976 2.773839,-4.47234 7.572099,-7.29123 12.820209,-7.53172 l 1.20617,-0.0554 v -0.36359 z m 2.33782,0.31274 c -0.0898,0.004 -0.15309,0.028 -0.15309,0.0649 0,0.0492 -0.0249,0.15423 -0.0552,0.23309 -0.0369,0.0962 0.0156,0.17036 0.15931,0.22544 0.25244,0.0967 0.32426,0.0451 0.36572,-0.26295 0.0256,-0.18977 -0.0109,-0.23237 -0.21958,-0.25638 -0.0344,-0.004 -0.0673,-0.005 -0.0973,-0.004 z m 1.67801,0.3515 c -0.2098,0 -0.27136,0.0471 -0.30722,0.23469 -0.034,0.17856 0.001,0.25328 0.14863,0.31274 0.27511,0.11101 0.30411,0.10691 0.36591,-0.0543 0.12869,-0.33537 0.0623,-0.49321 -0.20732,-0.49321 z m 1.59981,0.5469 c -0.27621,9.9e-4 -0.47486,0.41694 -0.25923,0.5428 0.24873,0.1452 0.37809,0.10655 0.47239,-0.14153 0.10945,-0.28784 0.0486,-0.4022 -0.21316,-0.40127 z m 21.97218,0.45445 -1.1802,0.97857 c -1.01002,0.8375 -1.15159,0.98601 -0.98143,1.03033 0.10933,0.0285 1.27153,0.0583 2.58247,0.0664 l 2.38352,0.0144 1.23299,-0.97662 c 0.67817,-0.53712 1.2339,-1.00717 1.23497,-1.04471 0.001,-0.0375 -1.18485,-0.0683 -2.63526,-0.0683 z m -3.61864,0.001 -1.43907,9e-4 -1.13789,0.95866 c -0.62583,0.52725 -1.15159,0.99783 -1.16829,1.04578 -0.0186,0.0531 0.50988,0.0872 1.34981,0.0872 h 1.38004 l 1.17256,-0.95868 c 0.64499,-0.52721 1.1973,-0.99829 1.22731,-1.04685 0.0344,-0.0556 -0.47779,-0.0877 -1.38447,-0.0871 z m -16.83145,0.18117 c -0.10293,-2e-4 -0.34618,0.44963 -0.27931,0.5165 0.0209,0.0209 0.4131,0.25944 0.87155,0.53035 1.2162,0.71869 2.48245,1.70177 3.41703,2.6527 0.84266,0.85743 0.93095,0.89722 1.22037,0.5485 0.2109,-0.25411 -1.82988,-2.21326 -3.35818,-3.22378 -0.74607,-0.4933 -1.71567,-1.02396 -1.87146,-1.02427 z m -7.0467,1.8487 c -1.96757,-0.0689 -3.60414,0.23291 -5.54737,1.02286 -0.82544,0.33555 -2.32014,1.18837 -2.57356,1.4684 -0.14769,0.16319 -0.13553,0.19595 0.25797,0.69198 0.22717,0.28635 0.42589,0.52076 0.44147,0.52076 0.0156,0 0.38131,-0.22174 0.81288,-0.49267 1.24649,-0.78258 2.80797,-1.36776 4.3003,-1.61153 0.99966,-0.16328 3.09284,-0.14084 3.99238,0.043 1.15279,0.23541 2.18957,0.59838 3.20901,1.12348 0.51931,0.2675 0.97674,0.46629 1.01663,0.44164 0.0399,-0.0246 0.22765,-0.27013 0.41729,-0.54547 l 0.34491,-0.50067 -0.21815,-0.18081 c -0.33329,-0.27624 -1.95565,-1.06043 -2.72256,-1.31604 -1.28063,-0.42682 -2.34423,-0.61627 -3.7312,-0.66478 z m 14.54784,0.97308 0.35294,0.43239 c 0.19409,0.23782 0.46631,0.58601 0.60485,0.77376 l 0.25192,0.34136 h 2.487 2.48699 l 0.92204,-0.73659 c 0.50708,-0.40515 0.92204,-0.75334 0.92204,-0.77376 0,-0.0204 -1.80628,-0.0372 -4.01388,-0.0372 z m 9.43325,0 -0.8849,0.73002 c -0.48664,0.40159 -0.88468,0.74979 -0.88468,0.77376 0,0.024 1.13673,0.0437 2.52609,0.0434 l 2.5261,-3.3e-4 0.8648,-0.68932 c 0.47563,-0.37906 0.90364,-0.72709 0.9512,-0.77341 0.0531,-0.0516 -0.91625,-0.084 -2.50601,-0.084 z m -16.49631,1.82257 c -0.0362,0.001 -0.18115,0.16471 -0.32198,0.36377 l -0.25602,0.36199 1.04827,1.00756 c 0.63551,0.61093 1.2534,1.31001 1.56957,1.77544 0.28681,0.42224 0.54487,0.76603 0.5734,0.76399 0.0286,-0.002 0.19416,-0.12537 0.36803,-0.27397 l 0.31611,-0.27008 -0.15913,-0.29514 c -0.19814,-0.36752 -0.83081,-1.21639 -1.38484,-1.85812 -0.42816,-0.49596 -1.63358,-1.57897 -1.75341,-1.57544 z m 14.39976,0.4532 -0.9745,0.78194 c -0.53594,0.43006 -0.97431,0.81622 -0.97431,0.85821 0,0.042 0.60755,0.0671 1.35016,0.0555 l 1.35018,-0.0211 1.02464,-0.83723 1.02462,-0.83723 h -1.40049 z m -3.71893,0.0207 c -0.9936,-0.0136 -1.82119,-0.01 -1.8391,0.008 -0.018,0.018 0.16206,0.40737 0.40004,0.86533 l 0.43274,0.83261 0.39595,0.001 c 0.36692,10e-4 0.47062,-0.0605 1.40653,-0.84045 l 1.01041,-0.84203 z m -27.36487,0.16126 c -0.14253,0 -1.46781,1.57546 -1.97192,2.34422 -0.57931,0.88345 -1.25197,2.267 -1.38004,2.83866 -0.0765,0.34133 -0.0666,0.42201 0.0631,0.52058 0.17791,0.13526 0.61969,0.16073 0.69429,0.0401 0.028,-0.0453 0.12631,-0.0629 0.21833,-0.0387 0.13581,0.0355 0.20608,-0.0647 0.37336,-0.53196 0.42768,-1.19482 1.28826,-2.53715 2.3012,-3.5895 l 0.62265,-0.647 -0.42085,-0.46813 c -0.23148,-0.25747 -0.45655,-0.46813 -0.50013,-0.46813 z m 22.32298,0.24588 c -0.0511,4.8e-4 -0.1045,0.0228 -0.16997,0.0579 -0.19855,0.10631 -0.19753,0.10969 0.20268,0.7318 0.2212,0.34382 0.48393,0.76363 0.5837,0.93272 0.19194,0.32531 0.24762,0.35302 0.45106,0.22418 0.158,-0.10003 0.11306,-0.22222 -0.40963,-1.11529 -0.37317,-0.63751 -0.50478,-0.83279 -0.65784,-0.83138 z m -12.98131,0.39276 c -0.30565,-0.0109 -0.50653,0.022 -0.50653,0.10824 0,0.1057 0.16749,0.15107 0.73092,0.19806 0.7837,0.0654 1.87759,0.37407 2.79527,0.78869 2.11692,0.95649 3.99374,3.15568 4.61874,5.41225 0.0833,0.3004 0.16772,0.59739 0.18777,0.65997 0.0453,0.14147 0.31522,0.15136 0.31522,0.0121 0,-0.0562 -0.14314,-0.53009 -0.31807,-1.05289 -0.92188,-2.75497 -3.03532,-4.82874 -5.86846,-5.75841 -0.64512,-0.21169 -1.44543,-0.34982 -1.95486,-0.3675 z m -1.10002,0.54742 c -0.51651,0.0264 -1.35905,0.1932 -2.17958,0.45604 -1.20663,0.38653 -2.95196,1.47469 -2.83866,1.76995 0.0292,0.0759 0.0725,0.13815 0.0965,0.13815 0.0239,0 0.32241,-0.21147 0.66301,-0.46974 1.13462,-0.86037 2.33562,-1.33141 3.96463,-1.55499 0.52915,-0.0726 0.79651,-0.14827 0.79651,-0.22562 0,-0.095 -0.19253,-0.12962 -0.50244,-0.11379 z m 15.7629,2.00143 c -0.18729,0.002 -0.33857,0.14713 -0.29177,0.27897 0.20078,0.56546 0.24259,0.62992 0.40787,0.62992 0.0983,0 0.20259,-0.0384 0.23149,-0.0852 0.0747,-0.12081 -0.22266,-0.82539 -0.34759,-0.82372 z m 3.15141,0.63313 0.16837,0.60735 c 0.54584,1.9685 0.77055,4.79141 0.53942,6.77948 -0.31,2.66672 -1.41906,5.63333 -3.004,8.03542 -0.53572,0.81189 -0.63236,1.01169 -0.53356,1.10392 0.26954,0.25163 1.10038,0.76833 1.16809,0.72647 0.13507,-0.0834 1.33632,-1.90651 1.72426,-2.61678 0.21194,-0.38802 0.42068,-0.70548 0.46387,-0.70548 0.16906,0 0.54227,0.21678 0.54227,0.31504 0,0.15902 -1.11721,2.06921 -1.69775,2.90285 -1.5876,2.27976 -3.91446,4.46387 -6.27455,5.88944 -0.41057,0.248 -0.78315,0.45088 -0.82798,0.45088 -0.0825,0 -0.43821,-0.54195 -0.37995,-0.57907 0.0175,-0.0109 0.29791,-0.17848 0.62334,-0.37212 1.08712,-0.64685 2.4881,-1.72035 3.4334,-2.63081 0.51483,-0.49589 0.93608,-0.93252 0.93608,-0.97024 0,-0.0378 -0.27122,-0.27779 -0.60255,-0.53356 l -0.60236,-0.46511 -0.69482,0.64912 c -1.43117,1.33724 -3.21071,2.53918 -5.17614,3.49581 -4.01171,1.95261 -8.30519,2.45049 -12.63228,1.46485 -3.06102,-0.69726 -6.3601,-2.36655 -8.495019,-4.29855 l -0.54565,-0.49391 h -3.382895 -3.382893 l 0.575164,0.70247 c 0.798056,0.97449 2.607208,2.82839 3.484416,3.57065 3.861397,3.26737 8.729167,5.40106 13.811957,6.05425 1.31229,0.16864 4.05819,0.1702 5.491,0.004 v 1.8e-4 c 3.16379,-0.36879 5.44762,-1.04407 8.12058,-2.40129 3.53455,-1.79469 6.7371,-4.53371 9.00511,-7.7017 2.07521,-2.89869 3.56978,-6.74548 4.10153,-10.55654 0.29134,-2.08799 0.16435,-5.67761 -0.27717,-7.83167 l -0.11197,-0.54618 -2.78355,-0.0241 z m -6.65929,0.18473 c -0.12827,0 -0.89395,0.4505 -1.01645,0.59811 -0.1243,0.14976 -0.11029,0.2083 0.3227,1.35426 0.13145,0.34786 0.29799,0.92137 0.37016,1.27442 0.24501,1.1986 0.14674,1.08072 0.84168,1.00827 0.3356,-0.035 0.64425,-0.0962 0.68593,-0.13601 0.2515,-0.2402 -0.88197,-4.09905 -1.20402,-4.09905 z m -11.8388,0.37247 c -0.15676,-0.002 -0.31666,0.0596 -0.45373,0.18741 -0.18497,0.17232 -0.20359,0.25247 -0.15468,0.66868 0.0506,0.43032 0.0122,0.57448 -0.42688,1.60211 -0.31119,0.72838 -0.58889,1.23516 -0.78247,1.42768 -0.2531,0.25174 -0.29181,0.34442 -0.24697,0.5917 0.0415,0.22881 -0.0515,0.53097 -0.42385,1.37561 -0.66359,1.50521 -0.68521,1.50863 -1.60869,0.25798 -0.54807,-0.74225 -0.70896,-1.02537 -0.67118,-1.1811 0.17605,-0.72565 -0.67479,-1.19129 -1.14391,-0.62602 -0.0658,0.0793 -0.12554,0.25411 -0.13283,0.38849 -0.0109,0.18955 -0.15757,0.35303 -0.6573,0.72931 -0.5454,0.41067 -0.69695,0.48168 -0.98837,0.46317 -0.28243,-0.018 -0.37819,0.0229 -0.53408,0.22827 -0.15306,0.20154 -0.17302,0.29884 -0.1028,0.50067 0.0479,0.13779 0.18039,0.29147 0.29442,0.34155 0.11403,0.0501 0.22907,0.19344 0.25549,0.3186 0.0845,0.40017 0.32676,1.02992 0.63223,1.64282 0.52676,1.05687 1.77381,2.45717 2.0121,2.25941 0.0963,-0.08 -0.0273,-0.25738 -0.60326,-0.86585 -0.56174,-0.59345 -0.82661,-0.96977 -1.18001,-1.67572 -0.61686,-1.2322 -0.71835,-1.58244 -0.52147,-1.79999 0.0829,-0.0917 0.15095,-0.25281 0.15095,-0.35808 0,-0.25203 1.32949,-1.24283 1.54094,-1.14836 0.0787,0.0351 0.26298,0.0676 0.40946,0.0718 0.2292,0.007 0.35863,0.13465 0.92932,0.91814 0.59196,0.81267 0.66135,0.95111 0.64718,1.29114 -0.0293,0.7034 0.59454,1.01324 1.07423,0.53356 0.24808,-0.24808 0.26653,-0.35396 0.12997,-0.74567 -0.0823,-0.23577 -0.0317,-0.40397 0.41871,-1.39605 0.28166,-0.62038 0.56742,-1.21254 0.63508,-1.31585 0.0677,-0.10329 0.20082,-0.43352 0.29586,-0.73393 0.30169,-0.95368 1.03681,-2.60387 1.14427,-2.5686 0.0869,0.0286 0.52793,1.20129 1.08579,2.88721 0.0746,0.22529 0.3521,1.01795 0.61659,1.76158 0.39757,1.11773 0.46227,1.38175 0.37373,1.52352 -0.18721,0.29979 -0.12943,0.68945 0.13282,0.89573 0.30448,0.23953 0.49205,0.23795 0.80291,-0.006 0.21448,-0.1687 0.24275,-0.24591 0.20819,-0.56894 -0.0359,-0.33681 0.0323,-0.49582 0.69288,-1.60904 0.71062,-1.19786 0.74435,-1.23788 1.11494,-1.32385 0.379,-0.088 0.38857,-0.0839 1.16473,0.50689 0.63925,0.48654 0.78263,0.64046 0.78283,0.83954 2.5e-4,0.25458 0.4021,0.66016 0.58583,0.59136 0.42388,-0.15873 0.48654,-0.15156 0.63384,0.0732 0.14439,0.22037 0.13864,0.26004 -0.13192,0.90995 -0.36994,0.88862 -0.84186,1.60811 -1.58788,2.42102 -0.53623,0.58433 -0.58769,0.67142 -0.44485,0.75137 0.13161,0.0736 0.22822,0.016 0.52148,-0.31096 0.87051,-0.97051 1.58967,-2.13323 1.88087,-3.04118 0.0642,-0.20026 0.21333,-0.48005 0.33124,-0.62156 0.36298,-0.43567 0.19701,-0.87346 -0.28518,-0.75243 -0.16833,0.0422 -0.22864,0.0214 -0.22864,-0.0793 0,-0.0753 -0.1127,-0.2623 -0.25034,-0.4155 -0.23249,-0.25868 -0.27145,-0.2711 -0.54511,-0.17495 -0.28421,0.0998 -0.32216,0.0821 -1.06961,-0.50155 -0.66025,-0.51557 -0.77483,-0.64488 -0.77483,-0.87333 0,-0.58825 -0.70899,-0.84209 -1.14215,-0.40893 -0.24375,0.24375 -0.27548,0.41949 -0.12641,0.69801 0.0819,0.15293 -0.0258,0.37864 -0.69179,1.45046 -0.49804,0.80161 -0.84404,1.26941 -0.93894,1.26928 -0.11126,-1.6e-4 -0.26267,-0.32467 -0.58388,-1.25168 -0.23851,-0.68831 -0.43308,-1.3341 -0.43241,-1.43499 7e-4,-0.10088 -0.11704,-0.42858 -0.26135,-0.72823 -0.14438,-0.29967 -0.42694,-1.01713 -0.62797,-1.5943 -0.32301,-0.92737 -0.35079,-1.06949 -0.23824,-1.2234 0.18514,-0.25319 0.15615,-0.59765 -0.0705,-0.839 -0.12408,-0.13208 -0.27758,-0.1997 -0.43435,-0.20233 z m -15.810892,0.1039 c -0.03055,-1.6e-4 -0.05563,0.002 -0.07306,0.01 -0.226916,0.087 -0.775558,2.83934 -0.77874,3.9065 -6.88e-4,0.23983 0.0184,0.25034 0.454444,0.25034 h 0.455149 l 6.9e-4,-0.38688 c 6.9e-4,-0.54885 0.23269,-1.99572 0.44875,-2.79919 0.10099,-0.3755 0.18462,-0.71041 0.1858,-0.74407 0.003,-0.0822 -0.47889,-0.23503 -0.692863,-0.23612 z m 9.025382,0.43398 c -0.29791,0 -1.15808,2.15573 -1.27674,3.19978 -0.0304,0.2678 -0.0741,0.57915 -0.097,0.69179 -0.0316,0.15487 2.3e-4,0.20482 0.13032,0.20482 0.14292,0 0.18248,-0.0935 0.23433,-0.55188 0.10221,-0.90317 0.39725,-1.90604 0.78247,-2.65979 0.39924,-0.78116 0.42582,-0.88472 0.2267,-0.88472 z m 22.87786,0.41587 c -0.0218,10e-4 -0.0457,0.005 -0.0722,0.0121 -0.26307,0.0689 -0.27928,0.12296 -0.16801,0.56131 0.0704,0.27759 0.13513,0.37215 0.22971,0.33585 0.0724,-0.0279 0.16934,-0.0504 0.21532,-0.0504 0.1086,0 0.10715,-0.38096 -0.002,-0.66958 -0.0524,-0.13771 -0.10775,-0.19295 -0.20233,-0.189 z m -28.3614,1.36794 c -0.072,0.001 -0.127419,0.0138 -0.148989,0.0349 -0.10743,0.10534 -0.32668,1.82026 -0.3291,2.57357 l -0.002,0.61445 0.34136,-0.001 c 0.187749,-6.9e-4 0.386479,-0.0314 0.441459,-0.0683 0.0864,-0.0577 0.22488,-1.52559 0.25497,-2.70229 0.008,-0.34013 -0.008,-0.36328 -0.30936,-0.42635 -0.0876,-0.0183 -0.17624,-0.0264 -0.24821,-0.0245 z m 28.7771,0.4436 c -0.0328,-0.001 -0.074,0.008 -0.12749,0.0219 -0.14254,0.0373 -0.18189,0.1242 -0.18189,0.40109 0,0.33328 0.0158,0.35363 0.27718,0.35363 0.27061,0 0.2758,-0.008 0.21567,-0.34136 -0.0606,-0.33581 -0.0848,-0.43184 -0.18347,-0.43524 z m -7.74349,1.63323 c -0.0121,3e-4 -0.0235,0.004 -0.035,0.0109 -0.0476,0.0294 -0.0864,0.2353 -0.0864,0.45765 0,0.34357 0.0273,0.4043 0.18206,0.4043 0.14246,0 0.18206,-0.0607 0.18206,-0.27914 0,-0.30016 -0.12798,-0.59692 -0.2427,-0.59383 z m 7.79824,0.0537 c -0.25594,0 -0.27309,0.0217 -0.27309,0.34883 0,0.40625 0.0454,0.47044 0.33372,0.47044 0.19106,0 0.21247,-0.0412 0.21247,-0.40964 0,-0.39447 -0.01,-0.40963 -0.2731,-0.40963 z m -4.20271,0.37372 c -0.55313,-0.001 -0.62198,0.14834 -0.62298,0.83563 -6.9e-4,0.36122 -0.0973,1.12786 -0.21514,1.70365 -0.36229,1.77009 -1.077,3.24002 -2.3147,4.76061 l -0.57854,0.71065 0.23362,0.29121 c 0.12847,0.1601 0.30574,0.38172 0.39398,0.4925 0.0882,0.11077 0.20264,0.20295 0.25408,0.20482 0.0514,0.001 0.29953,-0.23217 0.55133,-0.52005 1.96068,-2.24155 3.03282,-4.85394 3.07282,-7.48727 l 0.0146,-0.95582 -0.52111,-0.0273 c -0.10003,-0.005 -0.18891,-0.008 -0.26793,-0.008 z m -28.618313,0.91066 c -0.104412,7e-4 -0.195507,0.02 -0.224374,0.0512 -0.03849,0.0415 -0.02894,0.3519 0.02115,0.68985 0.0886,0.59756 0.09842,0.61447 0.357012,0.61447 0.146249,0 0.285231,-0.0512 0.308826,-0.11379 0.0236,-0.0626 0.0121,-0.35958 -0.0256,-0.65997 -0.06458,-0.51487 -0.08355,-0.5479 -0.329987,-0.57606 -0.03595,-0.004 -0.07223,-0.006 -0.10703,-0.006 z m 4.888633,0.7183 c -0.39537,0 -1.288479,0.21428 -1.288479,0.30918 0,0.48148 0.806189,2.92824 1.165089,3.5358 0.17374,0.29412 0.2068,0.29967 0.5917,0.10064 0.16023,-0.0828 0.39714,-0.22871 0.52645,-0.3243 l 0.23504,-0.17388 -0.3138,-0.78177 c -0.17264,-0.42996 -0.41888,-1.20561 -0.54707,-1.72372 -0.16585,-0.67024 -0.2723,-0.94195 -0.36893,-0.94195 z m 27.86215,0.18206 c -0.24954,0 -0.25456,0.0121 -0.46012,1.06961 -0.11427,0.58829 -0.23016,1.17836 -0.25744,1.31142 -0.0378,0.18421 -0.01,0.25234 0.11886,0.28535 0.32814,0.0845 0.36806,0.0608 0.46689,-0.27683 0.14481,-0.49488 0.3842,-1.81974 0.3842,-2.12659 0,-0.22675 -0.0348,-0.26296 -0.25229,-0.26296 z m -32.022179,1.65829 c -0.0379,-0.001 -0.16541,0.0328 -0.307764,0.0825 -0.278738,0.0971 -0.292233,0.12199 -0.234332,0.43062 0.138754,0.73961 0.548266,1.85604 1.090056,2.97184 1.49341,3.07556 3.705909,5.4372 6.715649,7.16813 0.41307,0.23756 0.77957,0.43214 0.81429,0.43239 0.0346,2.7e-4 0.12688,-0.0905 0.20483,-0.20179 0.078,-0.11125 0.1417,-0.23278 0.1417,-0.27007 0,-0.0373 -0.3877,-0.29602 -0.86141,-0.57481 -0.47371,-0.2788 -1.20082,-0.75596 -1.6158,-1.06037 -0.99663,-0.7311 -2.60668,-2.37915 -3.370449,-3.4501 -0.83209,-1.16674 -1.69709,-2.89764 -2.16002,-4.322 -0.21103,-0.64929 -0.3939,-1.1911 -0.40626,-1.20384 -10e-4,-0.001 -0.005,-0.002 -0.0105,-0.002 z m 5.822589,2.59686 -0.36039,0.18669 c -0.70486,0.36474 -0.70806,0.37209 -0.3707,0.86639 0.44523,0.65238 1.36805,1.67752 2.04837,2.27559 0.84841,0.74585 2.17477,1.61029 2.47098,1.61029 0.13435,0 0.55129,0.14177 0.92632,0.31505 1.28613,0.59423 3.27738,1.04862 4.60078,1.04986 0.56816,7e-4 0.56894,0.001 0.56894,0.26688 0,0.18118 0.0509,0.27643 0.15929,0.29762 0.25039,0.049 1.63419,-0.0969 2.43509,-0.25673 1.37519,-0.27439 3.09619,-0.94274 4.1218,-1.60086 l 0.48058,-0.30847 -0.36484,-0.5645 c -0.20064,-0.31044 -0.382,-0.56432 -0.40288,-0.56432 -0.0209,0 -0.49023,0.22539 -1.04312,0.50103 -1.17504,0.5858 -2.77373,1.07142 -4.05763,1.23247 -2.81676,0.35333 -6.07223,-0.48998 -8.29659,-2.14919 -0.9576,-0.71429 -2.11955,-1.94682 -2.77572,-2.94445 z m 24.69474,0.31434 c -0.0121,-3.4e-4 -0.0192,6.9e-4 -0.0222,0.005 -0.0109,0.0127 -0.18518,0.35313 -0.38689,0.75633 -1.15014,2.29928 -3.01334,4.36222 -5.34378,5.91648 -2.5087,1.67314 -5.32948,2.61744 -8.23828,2.75811 l -1.22892,0.0595 -0.0297,0.30971 -0.0296,0.30991 1.39498,-0.0562 c 0.94439,-0.038 1.74997,-0.12974 2.49374,-0.28429 3.42434,-0.71158 6.42865,-2.39189 8.91249,-4.98447 1.14667,-1.19689 2.08433,-2.51047 2.69393,-3.7744 0.19684,-0.40813 0.3579,-0.76257 0.3579,-0.78763 0,-0.0451 -0.46267,-0.22251 -0.57374,-0.2274 z m -9.78314,0.20375 c -0.0735,0.004 -0.22796,0.0742 -0.45,0.21673 -0.59387,0.3811 -1.35039,0.70653 -2.28891,0.98446 -0.60853,0.1802 -1.06432,0.2436 -2.0153,0.2802 -1.54152,0.0592 -2.42324,-0.12632 -3.81173,-0.80239 -0.59954,-0.29192 -0.97585,-0.42801 -1.03103,-0.37283 -0.17515,0.17514 1.22768,0.93003 2.31132,1.24367 1.32963,0.38483 3.15786,0.38491 4.50033,1.7e-4 1.02061,-0.2925 2.31608,-0.89982 2.63954,-1.23744 0.20099,-0.20979 0.24025,-0.31696 0.14578,-0.31257 z m -28.38166,0.68842 -0.90782,0.73395 c -0.499317,0.40364 -0.946841,0.77232 -0.994403,0.81927 -0.05389,0.0532 0.436294,0.0853 1.300566,0.0853 h 1.38715 l 0.693044,-0.56876 c 0.381142,-0.31291 0.819819,-0.6804 0.975026,-0.8166 l 0.282337,-0.24768 -1.367952,-0.002 z m 4.847564,10e-4 c -0.415645,-10e-4 -0.475861,0.0326 -1.228916,0.6943 -0.435524,0.38267 -0.851753,0.75134 -0.925063,0.81928 -0.112594,0.10437 0.144302,0.12338 1.653842,0.12338 h 1.787012 l -0.42493,-0.81784 -0.42475,-0.81769 z m 26.205476,1.45792 c -0.0538,0.001 -0.19237,0.0819 -0.30813,0.17851 l -0.2105,0.17548 0.38777,0.54974 c 0.21324,0.30238 0.40167,0.54974 0.41888,0.54974 0.0173,0 0.15247,-0.0898 0.30065,-0.1993 0.14818,-0.10944 0.26953,-0.22692 0.26953,-0.26083 0,-0.1162 -0.76042,-0.99638 -0.8582,-0.99334 z m -29.387819,0.90426 -0.852881,0.69305 c -0.469079,0.38117 -0.852877,0.70948 -0.852877,0.72967 0,0.0203 1.721917,0.0368 3.82649,0.0368 3.619028,0 3.821308,-0.008 3.733328,-0.1593 -0.0512,-0.0876 -0.269276,-0.40509 -0.484847,-0.70549 l -0.392038,-0.54618 -2.488588,-0.0244 z m -6.4166,0.004 -0.807898,0.64415 c -0.444352,0.35434 -0.846922,0.68207 -0.894483,0.72825 -0.05288,0.0514 0.879221,0.0841 2.398979,0.0841 h 2.485568 l 0.741578,-0.60771 c 0.407875,-0.33424 0.801438,-0.66195 0.874749,-0.72824 0.110964,-0.10028 -0.279908,-0.12055 -2.332664,-0.12055 z m 4.011754,2.36681 -0.993162,0.82674 c -0.546253,0.45469 -1.053192,0.88481 -1.126506,0.95583 -0.115261,0.11162 0.04872,0.12907 1.212915,0.12907 h 1.34626 l 1.085611,-0.9199 c 0.597046,-0.50592 1.085615,-0.93603 1.085615,-0.95583 0,-0.0198 -0.587433,-0.036 -1.305368,-0.036 z m -7.134181,0.088 -1.044542,0.87547 c -0.5745,0.48149 -1.044542,0.89194 -1.044542,0.91191 0,0.0199 1.116339,0.0362 2.480767,0.0362 h 2.480764 l 1.084548,-0.88754 1.084544,-0.88755 -2.520768,-0.0244 z m 25.344236,2.5903 c -0.0845,0.001 -0.13918,0.0583 -0.20003,0.19202 -0.13965,0.3065 -0.13913,0.30835 0.0987,0.40395 0.30845,0.12397 0.33814,0.11379 0.43792,-0.14863 0.0994,-0.2615 0.0542,-0.34262 -0.24074,-0.43135 -0.0362,-0.0109 -0.0677,-0.0165 -0.0958,-0.0161 z m 1.85102,0.61658 c -0.1504,-0.005 -0.29073,0.081 -0.34776,0.23612 -0.0623,0.16937 -0.0386,0.22355 0.12657,0.28997 0.30458,0.12252 0.33466,0.11319 0.45037,-0.1408 0.0863,-0.18947 0.0817,-0.25032 -0.0247,-0.31915 -0.0655,-0.0425 -0.1361,-0.0637 -0.20446,-0.0661 z m 1.61969,0.3483 c -0.11764,-0.006 -0.22696,0.0139 -0.22791,0.0664 -7e-4,0.0375 -0.0251,0.15666 -0.0541,0.26474 -0.0381,0.14197 -0.006,0.20858 0.115,0.23984 0.32786,0.0845 0.39252,0.0617 0.44767,-0.15806 0.0308,-0.12231 0.0292,-0.2657 -0.004,-0.31861 -0.0335,-0.0544 -0.15955,-0.0877 -0.27718,-0.0942 z m -30.90403,12.46925 v 5.41172 5.41188 l 0.523429,0.0361 c 0.496861,0.0342 1.30701,-0.01 1.373638,-0.0741 0.01704,-0.0165 0.03066,-1.87653 0.0302,-4.13337 -3.44e-4,-2.25684 0.02663,-4.10105 0.06009,-4.09816 0.03348,0.002 0.271471,0.2589 0.52894,0.56894 0.257471,0.31004 0.789997,0.94917 1.183398,1.42022 0.393397,0.47106 1.247798,1.49822 1.898668,2.2827 0.65087,0.7845 1.668462,2.00693 2.261364,2.71653 l 1.077971,1.29026 h 1.175042 1.175044 v -5.41635 -5.41632 H 89.51465 88.558829 v 4.1067 4.1067 l -2.344042,-2.81361 c -3.040766,-3.64977 -3.793003,-4.54237 -4.223861,-5.0129 l -0.354168,-0.38693 h -1.227139 z m 54.8005,0.0754 v 5.36353 c 0,2.94989 0.0308,5.39405 0.0683,5.43161 0.0375,0.0375 1.54297,0.0512 3.34538,0.0303 3.06588,-0.0356 3.321,-0.0513 3.95912,-0.24162 1.86282,-0.55576 2.9787,-1.64334 3.51643,-3.42699 0.22279,-0.73902 0.22583,-2.66701 0.006,-3.48956 -0.46581,-1.73879 -1.80256,-2.99025 -3.66844,-3.43428 -0.49934,-0.11885 -1.29675,-0.15756 -3.92641,-0.19095 z m -10.10423,0.01 -1.02411,0.0258 -1.02409,0.0258 v 3.91431 c 0,3.61367 0.0131,3.95279 0.17336,4.41499 0.43918,1.26776 1.29324,2.00159 2.74354,2.35774 1.04233,0.25597 3.19536,0.26166 4.1755,0.0109 1.25157,-0.32014 1.97413,-0.84975 2.45107,-1.79662 0.39036,-0.77497 0.42422,-1.18714 0.42422,-5.17364 v -3.77333 h -0.99672 -0.99653 l -0.0275,3.70949 -0.0274,3.70952 -0.22758,0.45497 c -0.36896,0.7377 -0.93256,1.01793 -2.23025,1.10891 -0.86115,0.0603 -1.92586,-0.0868 -2.4084,-0.33302 -0.43651,-0.22268 -0.78943,-0.63915 -0.91032,-1.07441 -0.0573,-0.20662 -0.0941,-1.74976 -0.0944,-3.96001 z m -13.74581,0.006 v 5.37082 5.3708 h 1.00132 1.00133 v -2.27576 -2.27577 h 2.73094 2.73092 v 2.26049 c 0,1.24331 0.0273,2.28789 0.0606,2.32127 0.0754,0.0754 1.45828,0.0782 1.73723,0.004 v -1.8e-4 l 0.20482,-0.055 v -5.36014 -5.36014 h -1.00134 -1.00133 v 2.13922 2.13922 h -2.73094 -2.73093 v -2.13922 -2.13922 h -1.00132 z m 25.85271,1.91164 1.75235,7e-4 c 0.96379,3.3e-4 2.0186,0.0437 2.34403,0.0963 1.25591,0.20321 2.23115,0.90136 2.60186,1.86256 0.24952,0.64701 0.24952,2.4429 0,3.0899 -0.39804,1.03208 -1.4168,1.71219 -2.80347,1.87163 -0.8585,0.0987 -3.74222,0.11934 -3.83414,0.0274 -0.0333,-0.0333 -0.0606,-1.6105 -0.0606,-3.50469 z m -37.425539,1.1834 -0.61321,1.29719 c -0.33728,0.71345 -0.85533,1.83996 -1.15104,2.50336 -0.295706,0.66338 -0.55977,1.20532 -0.586898,1.20437 -0.02711,-0.001 -0.294699,-0.5642 -0.594544,-1.25167 -0.299849,-0.68747 -0.796562,-1.80291 -1.103925,-2.47881 l -0.558808,-1.22892 -1.058058,-0.0258 c -0.581875,-0.0141 -1.057874,-0.002 -1.057874,0.0262 0,0.0284 0.222186,0.4905 0.493734,1.02693 1.538088,3.0385 2.871885,5.89195 2.824264,6.04199 -0.07178,0.22621 -0.978067,1.57834 -1.759809,2.6255 -0.355082,0.47561 -0.646189,0.89663 -0.646815,0.93571 -6.89e-4,0.0391 0.497941,0.0595 1.107837,0.0455 l 1.108903,-0.0255 0.761315,-1.1834 c 0.685578,-1.06549 1.943068,-3.51602 4.029888,-7.85371 0.367939,-0.76482 0.700049,-1.37926 0.738029,-1.36547 0.0886,0.0321 2.81335,3.53132 2.80986,3.60834 -10e-4,0.0317 -0.67643,0.87723 -1.49988,1.87858 -0.82345,1.00133 -1.49813,1.85133 -1.49933,1.88889 -0.001,0.0375 0.46105,0.0683 1.02729,0.0683 h 1.02961 l 1.02747,-1.28387 c 0.5651,-0.70611 1.05814,-1.24888 1.09575,-1.20614 0.0376,0.0427 0.50762,0.62046 1.04455,1.28384 l 0.97626,1.20617 h 1.0858 c 0.59721,0 1.08596,-0.0234 1.08596,-0.0519 0,-0.057 -1.53472,-1.96973 -2.43455,-3.03424 -0.31327,-0.37063 -0.56947,-0.72457 -0.56947,-0.78638 0,-0.0618 0.60422,-0.8603 1.3427,-1.77441 0.73849,-0.91408 1.41769,-1.75834 1.50947,-1.87626 l 0.16695,-0.21441 h -1.13504 c -1.12883,0 -1.13578,0.001 -1.29379,0.24251 -0.33391,0.5096 -1.70205,2.21531 -1.77688,2.21531 -0.0432,0 -0.50054,-0.55167 -1.01628,-1.22589 l -0.93768,-1.22588 -1.98597,-0.004 z" /></g></svg>
